PathFileType	4	(X/Y/Z)	..\data\2014053\dynamic\2014053_C4_04.trc
DataRate	CameraRate	NumFrames	NumMarkers	Units	OrigDataRate	OrigDataStartFrame	OrigNumFrames
100.000000	100.000000	4	52	mm	100.000000	135	181
Frame#	Time	L_IAS			L_IPS			R_IPS			R_IAS			L_FTC			L_FLE			L_FME			L_FAX			L_TTC			L_FAL			L_TAM			L_FCC			L_FM1			L_FM2			L_FM5			R_FTC			R_FLE			R_FME			R_FAX			R_TTC			R_FAL			R_TAM			R_FCC			R_FM1			R_FM2			R_FM5			CV7			TV10			SXS			SJN			L_SIA			L_SRS			L_SAA			L_SAE			L_HLE			L_HME			L_UOA			L_RSP			L_UHE			L_HM2			L_HM5			R_SIA			R_SRS			R_SAA			R_SAE			R_HLE			R_HME			R_UOA			R_RSP			R_UHE			R_HM2			R_HM5			
		X1	Y1	Z1	X2	Y2	Z2	X3	Y3	Z3	X4	Y4	Z4	X5	Y5	Z5	X6	Y6	Z6	X7	Y7	Z7	X8	Y8	Z8	X9	Y9	Z9	X10	Y10	Z10	X11	Y11	Z11	X12	Y12	Z12	X13	Y13	Z13	X14	Y14	Z14	X15	Y15	Z15	X16	Y16	Z16	X17	Y17	Z17	X18	Y18	Z18	X19	Y19	Z19	X20	Y20	Z20	X21	Y21	Z21	X22	Y22	Z22	X23	Y23	Z23	X24	Y24	Z24	X25	Y25	Z25	X26	Y26	Z26	X27	Y27	Z27	X28	Y28	Z28	X29	Y29	Z29	X30	Y30	Z30	X31	Y31	Z31	X32	Y32	Z32	X33	Y33	Z33	X34	Y34	Z34	X35	Y35	Z35	X36	Y36	Z36	X37	Y37	Z37	X38	Y38	Z38	X39	Y39	Z39	X40	Y40	Z40	X41	Y41	Z41	X42	Y42	Z42	X43	Y43	Z43	X44	Y44	Z44	X45	Y45	Z45	X46	Y46	Z46	X47	Y47	Z47	X48	Y48	Z48	X49	Y49	Z49	X50	Y50	Z50	X51	Y51	Z51	X52	Y52	Z52	

136	1.35	1362.006958007813	937.0030517578127	-281.3585205078126	1150.013793945313	963.6794433593752	-237.7842102050782	1142.6015625	959.5404052734377	-130.5852813720703	1339.453491210938	925.3325805664065	-61.80324172973634	1311.265625	874.303894042969	-372.4244079589844	1418.5322265625	485.5495605468751	-298.4151306152344	1383.118530273438	481.7171020507814	-169.028793334961	1404.761474609375	419.2146911621095	-305.1686706542969	1456.921264648438	419.9077148437501	-233.0190582275391	1406.626098632813	64.51885986328126	-264.5686340332032	1422.963500976563	79.11743927001955	-175.7914123535157	1358.718139648438	15.69343566894532	-209.8568878173829	1544.378662109375	20.4883041381836	-150.9598999023438	1557.541625976563	39.1566276550293	-205.5840148925782	1524.703125	17.48530960083008	-266.0801086425782	1263.512939453125	844.9423828125002	12.2069959640503	1236.610229492188	454.2654113769532	-42.03744125366212	1241.48193359375	439.9452209472657	-180.4054565429688	1189.879760742188	415.2642211914064	-42.43621444702149	1231.760864257813	354.4998474121094	-94.74863433837892	914.794128417969	171.6929626464844	-68.63471984863283	940.8762817382815	165.1699676513672	-152.8185272216797	857.453796386719	179.945068359375	-130.9672241210938	969.7007446289065	44.60587310791016	-177.9624938964844	986.0413818359377	42.66075515747071	-124.9487228393555	948.0456542968752	41.84137344360352	-70.70689392089845	1172.816040039063	1432.163452148438	-190.6973114013672	1141.201416015625	1197.526000976563	-187.6693572998047	1353.334350585938	1161.2431640625	-198.1736450195313	1288.420288085938	1368.293701171875	-198.3392028808594	1118.39306640625	1243.615356445313	-274.1178894042969	1131.265747070313	1369.0390625	-278.9529113769532	1187.086791992188	1371.419067382813	-378.1283569335938	1231.444946289063	1378.377075195313	-383.9548339843751	1181.798583984375	1060.861694335938	-413.9302368164064	1179.123291015625	1052.690795898438	-330.4717102050782	1156.229125976563	1030.76513671875	-370.7689514160157	1277.52587890625	823.6160888671877	-391.7010498046876	1219.6376953125	829.7646484375002	-435.1874389648439	1297.449096679688	739.4314575195314	-399.4290161132814	1210.178588867188	750.8164672851564	-431.4193725585939	1122.225952148438	1243.448364257813	-88.26899719238283	1139.581298828125	1368.65185546875	-96.91817474365237	1206.827880859375	1374.595336914063	-14.90904140472412	1255.256958007813	1374.701171875	-2.92696499824524	1240.292602539063	1058.832153320313	43.97201156616212	1226.589599609375	1047.194946289063	-36.0912094116211	1213.324096679688	1023.426330566406	7.126543045043947	1383.122192382813	845.264831542969	31.50474548339844	1322.23486328125	839.5620117187502	68.58575439453126	1420.172119140625	761.4862060546876	33.68077468872071	1323.563110351563	758.4194946289064	64.74434661865236	
137	1.36	1373.017211914063	938.6037597656252	-282.0205078125001	1160.87109375	964.6541748046877	-238.958480834961	1153.212036132813	958.9852294921877	-131.5991363525391	1349.983764648438	926.6316528320315	-62.88122177124025	1323.171752929688	876.1484985351565	-373.2171020507813	1425.4189453125	485.4202270507814	-298.6135864257813	1388.3076171875	481.8694152832032	-169.5547790527344	1410.594848632813	419.1606445312501	-305.3121032714844	1462.462158203125	419.301239013672	-232.7884826660157	1407.412475585938	64.55256652832033	-264.1370849609376	1423.234619140625	79.10942840576173	-175.2065734863282	1358.805786132813	15.76015758514405	-209.8571777343751	1544.591430664063	20.21964454650879	-150.8434600830078	1558.411743164063	38.84483337402344	-205.3031311035157	1524.90869140625	17.75882911682129	-266.4982910156251	1275.941528320313	845.362731933594	11.23662567138672	1257.47119140625	454.5452575683595	-39.81603240966798	1265.393920898438	439.0499572753907	-178.3681335449219	1212.059936523438	415.922821044922	-39.98424148559571	1253.260620117188	354.7463684082032	-91.80217742919923	932.917907714844	177.9395294189453	-67.01562500000001	959.4833984375002	170.3597259521485	-151.044921875	876.1700439453127	187.2291717529297	-130.0091400146485	985.794860839844	48.62159347534181	-174.4767456054688	1000.818725585938	46.02644348144532	-121.279296875	962.778259277344	47.18916320800782	-68.2198944091797	1184.218627929688	1433.538208007813	-192.1137237548829	1152.416748046875	1198.940307617188	-189.1786193847657	1364.654541015625	1162.586669921875	-198.5570831298829	1299.785278320313	1369.67431640625	-199.1534881591797	1130.271850585938	1245.012329101563	-276.0840759277344	1143.21630859375	1370.3984375	-280.6825561523438	1199.65869140625	1372.947143554688	-379.5294189453126	1244.073974609375	1379.927978515625	-384.9796447753907	1195.444213867188	1062.431030273438	-416.2627868652345	1191.604248046875	1054.00830078125	-332.9679260253907	1169.2138671875	1032.093994140625	-373.5138244628907	1291.936645507813	825.5666503906252	-393.4229431152345	1234.589965820313	831.4993286132815	-437.6289367675782	1312.410888671875	741.5609130859376	-400.9868164062501	1225.536254882813	752.4054565429689	-434.0515441894532	1133.134399414063	1244.864868164063	-89.94925689697267	1150.538818359375	1369.98828125	-98.44468688964847	1217.3056640625	1376.015014648438	-16.08104133605957	1265.747192382813	1376.128784179688	-3.909894704818726	1249.771484375	1060.282348632813	42.23868560791016	1236.856323242188	1048.8896484375	-37.88394165039063	1222.8369140625	1025.452392578125	5.063349246978761	1388.150268554688	843.6370239257815	31.89435577392579	1326.920043945313	839.6837158203127	68.44448089599611	1422.669677734375	758.6109619140626	34.33054733276368	1325.7197265625	758.6258544921876	64.96559143066408	
138	1.37	1383.744140625	940.0416259765627	-282.6610107421876	1171.494140625	965.5819091796877	-240.2154541015626	1163.562622070313	958.5151977539065	-132.8020172119141	1360.326171875	928.0499267578127	-63.66391372680665	1334.582397460938	877.7513427734377	-373.9308471679688	1431.35498046875	485.0957031250001	-298.9238891601563	1393.365478515625	482.0087280273439	-170.0376586914063	1415.49169921875	418.9532165527345	-305.4282531738282	1467.4951171875	418.6333923339845	-232.8178100585938	1408.01513671875	64.55382537841798	-263.6503295898438	1423.437255859375	79.01527404785158	-174.6133575439453	1358.85498046875	15.76288509368897	-209.7660675048829	1544.808837890625	20.13019180297852	-150.799560546875	1559.157470703125	38.65500640869141	-205.1216888427735	1525.028198242188	18.05902671813965	-266.8750915527344	1287.594116210938	846.0313720703127	10.42409706115723	1278.470458984375	455.2312622070314	-37.69843292236329	1289.139404296875	438.8743896484376	-176.3742065429688	1234.4326171875	416.9002990722657	-37.6822853088379	1275.0322265625	355.5037231445313	-89.07358551025392	952.1980590820315	183.499984741211	-65.64515686035158	979.193542480469	174.9998321533203	-149.5513763427735	895.919860839844	193.2361602783204	-129.2524719238282	1004.260620117188	52.43701171875001	-170.894515991211	1018.074523925781	49.60286331176759	-117.4926986694336	979.854919433594	52.53987884521486	-65.50971984863283	1195.54638671875	1434.952880859375	-193.4651184082032	1163.409057617188	1200.392578125	-190.6615905761719	1375.754760742188	1163.806640625	-198.8053131103516	1311.037963867188	1371.014282226563	-199.8797760009766	1141.9619140625	1246.439819335938	-278.0313110351563	1155.066162109375	1371.819580078125	-282.3988952636719	1212.205932617188	1374.429321289063	-380.8950805664063	1256.691284179688	1381.390625	-385.9206848144532	1209.166625976563	1063.9033203125	-418.6853637695314	1204.031005859375	1055.170288085938	-335.6069641113282	1182.211303710938	1033.312133789063	-376.4137268066407	1306.374877929688	827.4384765625002	-395.2041931152345	1249.670166015625	833.1878662109377	-440.2301025390626	1327.455322265625	743.6429443359376	-402.7395935058595	1241.053955078125	753.9630737304689	-436.9873046875001	1143.760864257813	1246.339599609375	-91.63479614257814	1161.360473632813	1371.37841796875	-99.91030120849612	1227.623779296875	1377.41357421875	-17.15887260437012	1276.063598632813	1377.491821289063	-4.777501106262208	1259.111450195313	1061.655517578125	40.69269943237305	1246.925537109375	1050.45751953125	-39.47520065307618	1232.218872070313	1027.392700195313	3.211121082305909	1393.075439453125	842.1794433593752	32.29890441894532	1331.531982421875	839.8999023437502	68.33746337890626	1425.150390625	756.0248413085939	34.92905807495118	1328.118286132813	758.9691772460939	65.22449493408205	
139	1.38	1394.19384765625	941.340026855469	-283.3054504394532	1181.90478515625	966.4976806640627	-241.532455444336	1173.697265625	958.2307739257815	-134.1769104003907	1370.518798828125	929.615173339844	-64.18922424316408	1345.46826171875	879.1063232421877	-374.5836486816407	1436.471923828125	484.6296691894532	-299.3193054199219	1398.361083984375	482.1580200195314	-170.4604187011719	1419.590698242188	418.6383361816407	-305.5211791992188	1472.088623046875	417.9226684570314	-233.0728607177735	1408.462280273438	64.52950286865236	-263.1388854980469	1423.58740234375	78.83221435546876	-174.0337677001953	1358.869262695313	15.72324657440186	-209.6101074218751	1545.021362304688	20.13483428955078	-150.8063507080078	1559.786254882813	38.50950622558594	-205.0210571289063	1525.080200195313	18.32140922546387	-267.1973266601563	1298.458251953125	846.9890136718752	9.742759704589846	1299.547485351563	456.3639526367189	-35.71981811523438	1312.567138671875	439.4768066406251	-174.454330444336	1256.86669921875	418.251434326172	-35.58362197875977	1296.99951171875	356.7979736328126	-86.5869598388672	972.5498046875002	188.2617950439453	-64.50680541992189	999.9362792968752	178.9963073730469	-148.310775756836	916.6008300781252	197.8892974853516	-128.6589813232422	1024.92724609375	55.92179489135744	-167.35693359375	1037.6982421875	53.24178314208986	-113.7452697753907	999.1983032226565	57.6551971435547	-62.69160079956056	1206.7890625	1436.404174804688	-194.7438049316407	1174.1982421875	1201.882690429688	-192.1032714843751	1386.638305664063	1164.924682617188	-198.9515380859376	1322.172485351563	1372.322143554688	-200.5275573730469	1153.455810546875	1247.90673828125	-279.9413146972657	1166.796875	1373.306640625	-284.0871276855469	1224.691162109375	1375.880493164063	-382.2138671875001	1269.256103515625	1382.783447265625	-386.7761535644532	1222.952758789063	1065.295288085938	-421.1658325195314	1216.4267578125	1056.199096679688	-338.3495483398438	1195.240478515625	1034.43798828125	-379.4221191406251	1320.828125	829.2422485351565	-397.0294189453126	1264.851318359375	834.848083496094	-442.9524536132814	1342.565063476563	745.6846923828126	-404.6875915527345	1256.703857421875	755.5140380859376	-440.1970825195314	1154.1220703125	1247.873779296875	-93.31538391113283	1172.054077148438	1372.8173828125	-101.3105773925782	1237.802124023438	1378.791137695313	-18.15542793273926	1286.221923828125	1378.798950195313	-5.539134979248048	1268.282592773438	1062.965576171875	39.33230590820313	1256.756591796875	1051.9189453125	-40.8664894104004	1241.434936523438	1029.256591796875	1.575203537940979	1397.922973632813	840.9307250976565	32.69807052612305	1336.109619140625	840.218200683594	68.25097656250001	1427.69091796875	753.7782592773439	35.47157287597657	1330.829711914063	759.4447021484376	65.50815582275392	
